<svg viewBox="0 0 50 50" xmlns="http://www.w3.org/2000/svg"><g stroke="#000" stroke-miterlimit="10"><path d="m4 20.57v-15.14a1.43 1.43 0 0 1 1.43-1.43h15.14a1.43 1.43 0 0 1 1 2.44l-15.13 15.14a1.43 1.43 0 0 1 -2.44-1.01z"/><path d="m20.57 46h-15.14a1.43 1.43 0 0 1 -1.43-1.43v-15.14a1.43 1.43 0 0 1 2.44-1l15.14 15.13a1.43 1.43 0 0 1 -1.01 2.44z"/><path d="m46 29.43v15.14a1.43 1.43 0 0 1 -1.43 1.43h-15.14a1.43 1.43 0 0 1 -1-2.44l15.13-15.14a1.43 1.43 0 0 1 2.44 1.01z"/><path d="m29.43 4h15.14a1.43 1.43 0 0 1 1.43 1.43v15.14a1.43 1.43 0 0 1 -2.44 1l-15.14-15.13a1.43 1.43 0 0 1 1.01-2.44z"/><rect height="28.28" rx="2.28" transform="matrix(.70710678 -.70710678 .70710678 .70710678 -10.36 25)" width="28.28" x="10.86" y="10.86"/></g></svg>