<svg viewBox="0 0 50 50" xmlns="http://www.w3.org/2000/svg"><path d="m18.88 41.25 5-7.93a1.33 1.33 0 0 1 2.28 0l5 7.93a1.46 1.46 0 0 1 -1.16 2.26h-10a1.46 1.46 0 0 1 -1.12-2.26z"/><path d="m35.29 41.25 5-7.93a1.33 1.33 0 0 1 2.28 0l5 7.93a1.46 1.46 0 0 1 -1.14 2.26h-10a1.46 1.46 0 0 1 -1.14-2.26z"/><path d="m39.33 33.29-5 7.94a1.33 1.33 0 0 1 -2.28 0l-5-7.94a1.45 1.45 0 0 1 1.14-2.29h10a1.46 1.46 0 0 1 1.14 2.29z"/><path d="m2.43 41.25 5-7.93a1.33 1.33 0 0 1 2.28 0l5 7.93a1.46 1.46 0 0 1 -1.14 2.26h-10a1.46 1.46 0 0 1 -1.14-2.26z"/><path d="m22.88 33.29-5 7.94a1.33 1.33 0 0 1 -2.28 0l-5-7.94a1.45 1.45 0 0 1 1.14-2.29h10a1.46 1.46 0 0 1 1.14 2.29z"/><path d="m27.11 28.1 5-7.94a1.33 1.33 0 0 1 2.28 0l5 7.94a1.45 1.45 0 0 1 -1.14 2.25h-10a1.45 1.45 0 0 1 -1.14-2.25z"/><path d="m10.66 28.1 5-7.94a1.33 1.33 0 0 1 2.28 0l5 7.94a1.45 1.45 0 0 1 -1.14 2.25h-10a1.45 1.45 0 0 1 -1.14-2.25z"/><path d="m31.16 20.57-5 7.93a1.33 1.33 0 0 1 -2.28 0l-5-7.93a1.46 1.46 0 0 1 1.12-2.26h10a1.46 1.46 0 0 1 1.16 2.26z"/><path d="m18.88 15.07 5-7.93a1.33 1.33 0 0 1 2.28 0l5 7.93a1.46 1.46 0 0 1 -1.16 2.26h-10a1.46 1.46 0 0 1 -1.12-2.26z"/></svg>