<svg viewBox="0 0 50 50" xmlns="http://www.w3.org/2000/svg"><circle cx="25" cy="25" fill="none" r="23" stroke="#000" stroke-miterlimit="10"/><path d="m22 27 3-21 3 20.91a2.37 2.37 0 0 1 -.91 2.34l-.37.24a3 3 0 0 1 -3.37 0l-.45-.29a2.23 2.23 0 0 1 -.9-2.2z" fill="none" stroke="#000" stroke-miterlimit="10"/><path d="m35.7 26.52-.6 1.36a1.09 1.09 0 0 0 -.18.55 1.12 1.12 0 0 0 0 .6 1 1 0 0 0 .27.51 1.06 1.06 0 0 0 .42.39l.35.15a1.55 1.55 0 0 0 .8 0l.36-.15a1.47 1.47 0 0 0 .54-.54l.6-1.36a1.12 1.12 0 0 0 .18-.56 1.22 1.22 0 0 0 0-.6 1.26 1.26 0 0 0 -.27-.51 1.18 1.18 0 0 0 -.42-.38l-.36-.15a1.55 1.55 0 0 0 -.8 0l-.35.15a1.4 1.4 0 0 0 -.54.54z"/><path d="m35.4 25.18a9.65 9.65 0 0 0 -.78 3.66 1.71 1.71 0 0 0 1.19 1.64 1.74 1.74 0 0 0 1.56-.34 4.33 4.33 0 0 0 1.12-2 15.1 15.1 0 0 0 .86-3.76 12.38 12.38 0 0 0 .08-1.72 1.83 1.83 0 0 0 -.68-1.47 1.69 1.69 0 0 0 -1.89-.11 3.64 3.64 0 0 0 -1.33 1.8 9.07 9.07 0 0 0 -.72 2.12 1.5 1.5 0 1 0 2.89.8c.06-.26.12-.52.2-.78s.08-.25.13-.37.14-.49 0-.12a4.36 4.36 0 0 1 .35-.72c.06-.1.12-.2.17-.3s.08-.14-.07.08a1.2 1.2 0 0 1 -1.08.25l-.66-.39v.05l-.39-.66c0-.25 0-.29 0-.09v.25.36a7.89 7.89 0 0 1 -.05.84v.35c0 .17 0 .16 0 0v.23c-.05.26-.09.51-.15.77a16 16 0 0 1 -.43 1.45 3.42 3.42 0 0 1 -.13.34c0 .07-.17.55-.07.19a2 2 0 0 1 -.15.33.76.76 0 0 1 -.09.18 1.2 1.2 0 0 1 .59-.48h.74l.66.38h-.05l.39.66c0 .24 0 .27 0 .08a1.79 1.79 0 0 1 0-.23 1.46 1.46 0 0 1 0-.36c0 .21 0 .22 0 .05v-.17c0-.14 0-.27.08-.41a9.56 9.56 0 0 1 .5-1.57 1.52 1.52 0 0 0 -.15-1.16 1.5 1.5 0 0 0 -2.74.36z"/><path d="m35.2 21.85a23.64 23.64 0 0 0 -.75 4.33c-.05.7-.07 1.39-.06 2.09s.11 1.8 1 2.22a1.54 1.54 0 0 0 2.21-.9c1.14-2.71.79-5.75.29-8.56-.25-1.46-2.6-1.41-2.89 0l-.62 3a10.86 10.86 0 0 0 -.41 3.25 1.51 1.51 0 0 0 3 .4 12.7 12.7 0 0 0 .03-7.15 1.51 1.51 0 0 0 -2.95.4l-.29 6h3a30.17 30.17 0 0 0 -.28-5.37 1.51 1.51 0 0 0 -3 .4c-.12 1.76-.16 3.52-.11 5.28a1.5 1.5 0 0 0 1.3 1.47 1.47 1.47 0 0 0 1.64-1.07 18.91 18.91 0 0 0 -.08-6.19 1.51 1.51 0 0 0 -2.2-.9c-1.19.64-1 2.13-1.07 3.28l-.02 3.17a1.5 1.5 0 0 0 1.5 1.5 1.53 1.53 0 0 0 1.5-1.5 21.6 21.6 0 0 0 -.78-7 1.52 1.52 0 0 0 -1.44-1.1 1.5 1.5 0 0 0 -1.45 1.1 14.71 14.71 0 0 0 .42 7.28 1.5 1.5 0 0 0 3-.4 27.35 27.35 0 0 0 -.5-7.22 1.51 1.51 0 0 0 -3 .4v3.94a1.52 1.52 0 0 0 1.5 1.5 1.54 1.54 0 0 0 1.5-1.5v-3.92l-2.95.4a20 20 0 0 1 .41 3.09 26.43 26.43 0 0 1 0 3.33l3-.4a9.66 9.66 0 0 1 -.5-1.5 10.12 10.12 0 0 1 -.15-1.29 14.81 14.81 0 0 1 0-1.49c0-.27 0-.55.07-.82v-.33s.06-.48 0-.25h-2.8a18 18 0 0 1 .67 6.18h3l.06-2.5v-1.23-.52-.35a.92.92 0 0 1 -.48.71l-2.2-.89a16.05 16.05 0 0 1 .08 4.59l3 .4c-.05-1.76 0-3.52.11-5.28l-3 .4a17.13 17.13 0 0 1 .18 2.17v2.4a1.51 1.51 0 0 0 1.5 1.5 1.53 1.53 0 0 0 1.5-1.5l.29-6-2.94.4c.06.24.12.48.17.72s0 .27.07.41 0 .25 0 .09a10.26 10.26 0 0 1 .07 1.57 8.81 8.81 0 0 1 -.35 2.79l2.94.4a8.59 8.59 0 0 1 .33-2.63l.59-2.82h-2.86c.06.31.11.63.16 1 0 0 .07.48 0 .25l.06.48c.06.62.1 1.24.1 1.87v.88s0 .32 0 .48c0-.25 0 .23 0 .23a9.08 9.08 0 0 1 -.55 1.82l2.21-.89.02.05.38.66c-.11-.27 0 .29 0 0s0-.29 0-.43 0-.58 0-.87c0-.55 0-1.1.1-1.65a10.7 10.7 0 0 1 .21-1.41c.1-.57.24-1.13.39-1.69a1.5 1.5 0 0 0 -2.89-.8z"/><path d="m32 19.45q-.25 3.47-.33 7h3a43.87 43.87 0 0 0 -.42-7.45 1.51 1.51 0 0 0 -2.95.4c.15 2.38.26 4.76.35 7.14a1.52 1.52 0 0 0 1.5 1.5 1.54 1.54 0 0 0 1.5-1.5 29.47 29.47 0 0 0 -.76-8.92 1.49 1.49 0 0 0 -1.84-1.05 1.53 1.53 0 0 0 -1 1.84 25.74 25.74 0 0 1 .65 8.13h3c-.09-2.38-.2-4.76-.35-7.14l-2.94.4c.1.6.12.81.18 1.47s.08 1.14.1 1.71c.05 1.15 0 2.3 0 3.44a1.5 1.5 0 0 0 3 0q.07-3.48.33-6.95a1.5 1.5 0 0 0 -1.5-1.5 1.54 1.54 0 0 0 -1.5 1.5z"/><path d="m34.13 27.36a42 42 0 0 0 -1.13-9.61 1.51 1.51 0 0 0 -2.95.4c0 1.81.06 3.63.16 5.44 0 .87.11 1.75.17 2.62a5.9 5.9 0 0 0 .62 2.79 1.52 1.52 0 0 0 2.8-.76c.07-3.4.06-6.79 0-10.19a1.5 1.5 0 1 0 -3 0l.2 10.28h3a82.1 82.1 0 0 0 -1.07-9.51 1.48 1.48 0 0 0 -1.64-1.08 1.51 1.51 0 0 0 -1.29 1.47 54.12 54.12 0 0 0 .09 7.85 1.54 1.54 0 0 0 1.5 1.5 1.51 1.51 0 0 0 1.5-1.5c-.21-2.75-.48-5.49-.79-8.23a1.54 1.54 0 0 0 -1.5-1.5 1.52 1.52 0 0 0 -1.5 1.5q.15 4.55.41 9.09a1.54 1.54 0 0 0 1.5 1.5 1.52 1.52 0 0 0 1.5-1.5c0-2.94-.23-5.88-.5-8.8a1.54 1.54 0 0 0 -1.5-1.5 1.52 1.52 0 0 0 -1.5 1.5c0 2.57 0 5.14.25 7.71a1.54 1.54 0 0 0 1.5 1.5 1.52 1.52 0 0 0 1.5-1.5c-.05-2.58-.2-5.16-.43-7.73a1.5 1.5 0 0 0 -3 0c-.09 2.18-.07 4.35.05 6.53a1.54 1.54 0 0 0 1.5 1.5 1.51 1.51 0 0 0 1.5-1.5q-.16-3.36-.55-6.71a1.54 1.54 0 0 0 -1.5-1.5 1.52 1.52 0 0 0 -1.5 1.5l.09 6.48h3l-.39-5.77a1.5 1.5 0 0 0 -3 0c-.06 2.2 0 4.41.14 6.61a1.54 1.54 0 0 0 1.5 1.5 1.52 1.52 0 0 0 1.5-1.5v-5.47h-3v6.07a1.5 1.5 0 0 0 3 0v-6.35a1.5 1.5 0 1 0 -3 0l-.15 6.44h3l-.22-7.54a1.5 1.5 0 0 0 -3 0v6.47h3a60.36 60.36 0 0 1 0-6.59h-3l.22 5.27a1.54 1.54 0 0 0 1.5 1.5 1.51 1.51 0 0 0 1.5-1.5l-.11-5.83a1.5 1.5 0 0 0 -3 0l-.31 5.74 2.94-.4-.74-5.62a1.47 1.47 0 0 0 -1.64-1.07 1.52 1.52 0 0 0 -1.36 1.47 19.27 19.27 0 0 0 -.09 3 1.5 1.5 0 0 0 3 0c0-.92 0-1.84 0-2.77a1.5 1.5 0 0 0 -3 0v2.77h3a19.27 19.27 0 0 1 .09-3l-2.94.4.81 5.62a1.49 1.49 0 0 0 1.65 1.07 1.52 1.52 0 0 0 1.3-1.47l.31-5.74h-3l.11 5.83h3l-.24-5.27a1.54 1.54 0 0 0 -1.5-1.5 1.52 1.52 0 0 0 -1.5 1.5 60.36 60.36 0 0 0 0 6.59 1.5 1.5 0 0 0 3 0v-6.47h-3l.21 7.54a1.5 1.5 0 0 0 3 0l.15-6.44h-3v6.35h3v-6.07a1.5 1.5 0 0 0 -3 0v5.47h3c-.15-2.2-.2-4.41-.14-6.61h-3l.39 5.77a1.5 1.5 0 0 0 3 0l-.09-6.48h-3q.39 3.34.55 6.71h3c-.12-2.18-.14-4.35-.05-6.53h-3.02c.23 2.57.38 5.15.43 7.73h3c-.2-2.57-.29-5.14-.25-7.71h-3c.27 2.92.5 5.86.5 8.8h3q-.26-4.55-.41-9.09h-3c.31 2.74.58 5.48.79 8.23h3a54.12 54.12 0 0 1 -.06-7.85l-2.95.4a75.24 75.24 0 0 1 1 8.72 1.5 1.5 0 0 0 3 0l-.31-10.33h-3c.11 3.4.12 6.79.05 10.19l2.79-.76a1 1 0 0 1 -.16-.54c0-.39-.06-.79-.09-1.18-.07-.84-.12-1.68-.16-2.52-.09-1.68-.13-3.36-.14-5l-3 .4a37.84 37.84 0 0 1 1.05 8.81 1.5 1.5 0 1 0 3 0z"/><path d="m29.9 18.58-.8-7.92c-.24-2.48-.17-5.24-1.68-7.35a1.54 1.54 0 0 0 -2.05-.54 1.5 1.5 0 0 0 -.54 2.05 5.58 5.58 0 0 1 1 2.82l.36 3.6.74 7.34a1.54 1.54 0 0 0 1.5 1.5 1.51 1.51 0 0 0 1.5-1.5z"/><path d="m25.11 6.56.4 1.2a1.14 1.14 0 0 0 .27.51 1.31 1.31 0 0 0 .42.39 1 1 0 0 0 .56.17 1.11 1.11 0 0 0 .6 0l.36-.15a1.61 1.61 0 0 0 .53-.54l.16-.36a1.55 1.55 0 0 0 0-.8l-.41-1.22a1.26 1.26 0 0 0 -.27-.51 1.18 1.18 0 0 0 -.42-.38 1.16 1.16 0 0 0 -.56-.18 1.11 1.11 0 0 0 -.6 0l-.36.16a1.61 1.61 0 0 0 -.54.53l-.15.36a1.55 1.55 0 0 0 0 .8z"/><path d="m26.62 5.94-3.62-.1a1.5 1.5 0 0 0 -1.5 1.5 1.54 1.54 0 0 0 1.5 1.5l3.66.1a1.5 1.5 0 1 0 0-3z"/><path d="m25.33 4a3.39 3.39 0 0 0 -.55-.24l-.22-.07a4.07 4.07 0 0 0 -.56-.05h-.23a1 1 0 0 0 -.57.13 1.11 1.11 0 0 0 -.49.31 1.11 1.11 0 0 0 -.31.48 1.27 1.27 0 0 0 -.13.58l.06.4a1.57 1.57 0 0 0 .38.66l.31.23a1.42 1.42 0 0 0 .75.21 2 2 0 0 1 .35 0l-.4-.05a1.56 1.56 0 0 1 .37.1l-.36-.15.14.07a1 1 0 0 0 .55.17 1.11 1.11 0 0 0 .6 0 1.14 1.14 0 0 0 .51-.27 1.21 1.21 0 0 0 .39-.42l.08-.37a1.55 1.55 0 0 0 0-.8l-.15-.36a1.45 1.45 0 0 0 -.52-.56z"/><path d="m25 3-.26-.09a1.11 1.11 0 0 0 -.6 0 1.09 1.09 0 0 0 -.55.18 1 1 0 0 0 -.42.38 1.06 1.06 0 0 0 -.27.51l-.06.4a1.48 1.48 0 0 0 .21.76l.23.3a1.49 1.49 0 0 0 .66.39l.26.08a1.22 1.22 0 0 0 .6 0 1.16 1.16 0 0 0 .56-.18 1.21 1.21 0 0 0 .42-.39 1.14 1.14 0 0 0 .22-.49v-.4a1.42 1.42 0 0 0 -.21-.75l-.23-.31a1.57 1.57 0 0 0 -.56-.39z"/><path d="m25.26 5.54a1.5 1.5 0 0 0 0-3 1.5 1.5 0 0 0 0 3z"/><path d="m25.17 5.54a1.5 1.5 0 0 0 0-3 1.5 1.5 0 0 0 0 3z"/><path d="m25.68 5.54a1.5 1.5 0 0 0 0-3 1.5 1.5 0 0 0 0 3z"/><path d="m25.68 5.54a1.5 1.5 0 0 0 0-3 1.5 1.5 0 0 0 0 3z"/><path d="m25.85 5.46a1.5 1.5 0 0 0 0-3 1.5 1.5 0 0 0 0 3z"/><path d="m24.74 2.45a9.55 9.55 0 0 0 -3.59.55 1.53 1.53 0 0 0 -1 1.85 1.51 1.51 0 0 0 1.84 1 2.48 2.48 0 0 0 .95-.53 1.49 1.49 0 0 0 .31-1.64 1.54 1.54 0 0 0 -1.37-.92 6.85 6.85 0 0 0 -3.94.82 1.5 1.5 0 0 0 .36 2.74 2.1 2.1 0 0 0 1.7-.14 1.52 1.52 0 0 0 .54-2 1.54 1.54 0 0 0 -2.06-.54.61.61 0 0 1 .44-.07c.28 0 .34 0 .16 0l.36 2.74a2.25 2.25 0 0 1 .35-.31q-.28.12-.06 0h.1a5.16 5.16 0 0 1 .77-.21h.15-.08s.3 0 .37 0a5.36 5.36 0 0 1 .8 0l-1.06-2.53a.82.82 0 0 1 .37-.26l.85 2.91a11.36 11.36 0 0 1 1.52-.41c.34-.07-.28 0 0 0h.45a6.77 6.77 0 0 1 .78 0 1.5 1.5 0 0 0 1.49-1.5 1.53 1.53 0 0 0 -1.5-1.5z"/><path d="m18.06 3.57a2.18 2.18 0 0 0 -1.19 0 2.33 2.33 0 0 0 -1.63 1.55 5.52 5.52 0 0 0 -.1 1v-.39a.7.7 0 0 1 -.06.19l.16-.36-.12.2.23-.31a1 1 0 0 1 -.21.21l.31-.24a2.39 2.39 0 0 1 -.49.28l.36-.16-.32.1a1.58 1.58 0 0 0 -.9.68 1.52 1.52 0 0 0 -.15 1.16 1.5 1.5 0 0 0 1.85 1 6.91 6.91 0 0 0 .85-.35 2.85 2.85 0 0 0 1.13-1 2.31 2.31 0 0 0 .22-.47 3.66 3.66 0 0 0 .13-1l-.05.4a1 1 0 0 1 0-.18l-.08.32a.75.75 0 0 1 .09-.15l-.24.3.15-.14-.3.23.2-.11-.36.15a.65.65 0 0 1 .2-.05l-.4.05a.67.67 0 0 1 .2 0l-.4-.05h.14a1 1 0 0 0 .59 0 1.12 1.12 0 0 0 .56-.18 1.53 1.53 0 0 0 .69-.89 1.51 1.51 0 0 0 -.12-1.1l-.27-.26a1.47 1.47 0 0 0 -.67-.39z"/><path d="m15.4 4.6a6 6 0 0 0 -2.5 1.4 3.33 3.33 0 0 0 -.36.39c-.14.16-.26.32-.39.49a.82.82 0 0 0 -.12.2 2.06 2.06 0 0 0 -.2 1.44 1.64 1.64 0 0 0 .43.77 1.57 1.57 0 0 0 .77.44 1.12 1.12 0 0 0 .6 0 1.12 1.12 0 0 0 .56-.18 1.53 1.53 0 0 0 .69-.89 1.51 1.51 0 0 0 -.15-1.16 1.45 1.45 0 0 0 -.9-.69l.35.15.3.23.23.3s0 0 0 0l.15.36s0 0 0-.06v.39a.24.24 0 0 1 0-.12v.39a1.24 1.24 0 0 1 0-.16l-.15.36a1.25 1.25 0 0 1 .16-.24l-.24.3a4.66 4.66 0 0 1 .8-.8l-.43.19a4.56 4.56 0 0 1 1-.57l-.36.15a4.29 4.29 0 0 1 .54-.19 1.53 1.53 0 0 0 .89-.69 1.49 1.49 0 0 0 .15-1.15 1.46 1.46 0 0 0 -.69-.9 1.54 1.54 0 0 0 -1.13-.15z"/><path d="m12.77 5.26a10.35 10.35 0 0 0 -2.63 3.55l-.14.36a1.12 1.12 0 0 0 0 .6 1.45 1.45 0 0 0 .41.86 1.79 1.79 0 0 0 .8.46 2 2 0 0 0 .95 0 1.49 1.49 0 0 0 .9-.69 1.52 1.52 0 0 0 .15-1.16 1.5 1.5 0 0 0 -.69-.89 1.64 1.64 0 0 0 -1.15-.15h-.05l.4-.05.4.05h-.09l.36.15h-.08l.31.24.24 1.81a9 9 0 0 1 1.14-1.91l-.24.31a9.43 9.43 0 0 1 1.26-1.34 1.5 1.5 0 0 0 -1.06-2.56 1.7 1.7 0 0 0 -1.06.44z"/><path d="m10.24 7.07a6.6 6.6 0 0 0 -.65.85 5.19 5.19 0 0 0 -.47 1 5.4 5.4 0 0 0 -.38 1.78 1.56 1.56 0 0 0 .44 1.06 1.52 1.52 0 0 0 1.06.44 1.57 1.57 0 0 0 1.07-.44 1.65 1.65 0 0 0 .43-1.06c0-.11 0-.22 0-.34l-.06.4a4.31 4.31 0 0 1 .32-1.07l-.15.36a4.06 4.06 0 0 1 .55-.94l-.24.31.19-.23a1.56 1.56 0 0 0 .44-1.06 1.5 1.5 0 0 0 -1.5-1.5 1.52 1.52 0 0 0 -1.06.44z"/><path d="m8.94 8.39a6.47 6.47 0 0 0 -1.63 1.41 3.63 3.63 0 0 0 -.82 1.3 1.86 1.86 0 0 0 .15 1.37 1.57 1.57 0 0 0 1.81.75 1.55 1.55 0 0 0 .9-.69 1.12 1.12 0 0 0 .18-.53 1.22 1.22 0 0 0 0-.6 1.5 1.5 0 0 0 -1.84-1l.4-.05h-.09l.4.05.35.15.3.24s0 0 0 0l.24.3.15.36a.13.13 0 0 1 0-.06l.05.4v-.11l-.05.39a.19.19 0 0 1 0-.08l-.15.35a3.08 3.08 0 0 1 .34-.49l-.29.15a5.57 5.57 0 0 1 1-1l-.3.24a3.65 3.65 0 0 1 .45-.32 1.62 1.62 0 0 0 .69-.89 1.11 1.11 0 0 0 0-.6 1.12 1.12 0 0 0 -.18-.5 1.5 1.5 0 0 0 -.89-.69 1.56 1.56 0 0 0 -1.16.15z"/><path d="m6.79 10.1c-.5 1.17-1 2.33-1.58 3.47a1.61 1.61 0 0 0 -.15 1.16 1.57 1.57 0 0 0 .69.89 1.5 1.5 0 0 0 2.05-.53c.55-1.15 1.08-2.31 1.58-3.47a1.16 1.16 0 0 0 .18-.56 1.22 1.22 0 0 0 0-.6 1.59 1.59 0 0 0 -.69-.9 1.56 1.56 0 0 0 -1.16-.15 1.44 1.44 0 0 0 -.89.69z"/><path d="m4.91 13.5a9 9 0 0 0 -1.12 2.91 1.08 1.08 0 0 0 0 .59 1 1 0 0 0 .17.56 1.55 1.55 0 0 0 .9.69 1.52 1.52 0 0 0 1.14-.15 1.47 1.47 0 0 0 .68-.9 8.84 8.84 0 0 1 .47-1.57l-.15.37a7.42 7.42 0 0 1 .5-1 1.61 1.61 0 0 0 .15-1.16 1.54 1.54 0 0 0 -.65-.84 1.52 1.52 0 0 0 -1.16-.16 1.62 1.62 0 0 0 -.89.69z"/><path d="m3.45 16.4-.81 3.08a1.54 1.54 0 0 0 .15 1.15 1.5 1.5 0 0 0 2.05.54 1.53 1.53 0 0 0 .69-.89l.81-3.08a1.54 1.54 0 0 0 -.15-1.15 1.51 1.51 0 0 0 -2.06-.54 1.56 1.56 0 0 0 -.68.89z"/><path d="m2.59 19.66a13 13 0 0 0 -.25 2.15 8.48 8.48 0 0 0 .27 1.94c0 .08.15.42 0 .09a1.13 1.13 0 0 1 0 .45c0 .28 0 .56-.07.84l-.15 1.87a1.49 1.49 0 0 0 1.5 1.5 1.54 1.54 0 0 0 1.5-1.5 14.29 14.29 0 0 0 .18-3.69 5.9 5.9 0 0 0 -.15-.73 2.21 2.21 0 0 1 0-.25c0-.14 0-.16 0-.05s0 .08 0-.07a2.44 2.44 0 0 1 0-.27 7.32 7.32 0 0 1 0-.81c0-.37 0 .18 0-.15l.09-.53a1.55 1.55 0 0 0 -1-1.85 1.53 1.53 0 0 0 -1.85 1.05z"/><path d="m2.23 24.72a3.64 3.64 0 0 0 0 .66v.5s0 .35.08.52a1.14 1.14 0 0 0 .27.51 1.31 1.31 0 0 0 .42.39 1 1 0 0 0 .56.17 1.11 1.11 0 0 0 .6 0l.36-.15a1.74 1.74 0 0 0 .54-.54l.15-.36a1.55 1.55 0 0 0 0-.8l-.06-.31.06.4a4.5 4.5 0 0 1 0-1 1.11 1.11 0 0 0 -.13-.57 1.11 1.11 0 0 0 -.31-.49 1.24 1.24 0 0 0 -.48-.31 1.29 1.29 0 0 0 -.58-.13l-.4.06a1.51 1.51 0 0 0 -.66.38l-.22.35a1.5 1.5 0 0 0 -.2.75z"/><path d="m16.44 30.46-.9-2.11a1.51 1.51 0 0 0 -2.74.36 24.62 24.62 0 0 0 -.37 2.83 1.5 1.5 0 0 0 1.5 1.5 1.54 1.54 0 0 0 1.5-1.5 8 8 0 0 0 -.85-3.54q-.69-1.76-1.53-3.45a1.5 1.5 0 0 0 -1.5-.72 1.53 1.53 0 0 0 -1.25 1.07 5.12 5.12 0 0 0 -.1 2.77 1.5 1.5 0 1 0 2.89-.79c0-.08 0-.15 0-.22 0 .21 0 .24 0 .07s0-.3 0-.45 0-.15 0 .07c0-.08 0-.15 0-.22s.08-.29.13-.43l-2.74.36c.24.5.48 1 .71 1.51.05.11.1.21.14.32s.24.55.09.19l.29.72c.19.49.39 1 .55 1.49a6.53 6.53 0 0 1 .2.76c.08.35 0-.31 0 .05a3.23 3.23 0 0 1 0 .44h3c0-.39.07-.77.11-1.16 0-.22 0 .26 0 0s0-.21.05-.31.06-.4.1-.6l-2.72.4.9 2.11a1.47 1.47 0 0 0 .9.68 1.52 1.52 0 0 0 1.16-.15 1.45 1.45 0 0 0 .68-.89 1.73 1.73 0 0 0 -.15-1.16z"/><path d="m9.2 25.57a27.32 27.32 0 0 0 1.25 6.71 1.54 1.54 0 0 0 1 1 1.46 1.46 0 0 0 1.55-.34 3.31 3.31 0 0 0 .72-2.44c0-.68-.1-1.36-.18-2a29.72 29.72 0 0 0 -.9-4.39 1.5 1.5 0 0 0 -2.95.4q0 2.89.24 5.78l2.95-.39a20 20 0 0 0 -2.88-6.52 1.5 1.5 0 1 0 -2.57 1.52 19.52 19.52 0 0 1 1.57 2.87c.13.29-.07-.18.06.15l.15.38c.1.26.19.51.27.77.18.52.32 1.05.45 1.58a1.5 1.5 0 0 0 2.94-.4q-.22-2.88-.24-5.78l-3 .39a27.06 27.06 0 0 1 .79 3.57c.07.47 0-.3 0 .18 0 .14 0 .29.05.43s.06.58.08.87 0 .57 0 .85c0 .06 0 .5 0 .29s0-.11 0 0a.54.54 0 0 1 .16-.26l2.51.66a24.64 24.64 0 0 1 -.78-3c-.05-.24-.09-.48-.13-.72l-.06-.36c-.07-.48 0 .29 0-.18s-.11-1.07-.15-1.61a1.5 1.5 0 0 0 -3 0z"/><path d="m6.49 26.34a7.35 7.35 0 0 0 .4 2.32 1.5 1.5 0 0 0 2.74.34 1.69 1.69 0 0 0 .15-1.15 11.89 11.89 0 0 0 -1.71-4.45 1.51 1.51 0 0 0 -1.69-.69 1.55 1.55 0 0 0 -1.1 1.44 29.16 29.16 0 0 0 0 4.18l2.95-.4a17 17 0 0 0 -.71-2.81 1.51 1.51 0 0 0 -1.64-1.07 1.47 1.47 0 0 0 -1.3 1.47 24.93 24.93 0 0 0 .73 4 1.51 1.51 0 0 0 1.84 1.05 1.53 1.53 0 0 0 1-1.85 24.71 24.71 0 0 1 -.6-2.94l.06.4c0-.23-.06-.45-.08-.68l-2.95.4a18 18 0 0 1 .71 2.8 1.42 1.42 0 0 0 .69.9 1.57 1.57 0 0 0 1 .18 1.47 1.47 0 0 0 1.3-1.47 29.16 29.16 0 0 1 0-4.18l-2.8.76a11.66 11.66 0 0 1 .83 1.56l-.16-.36a11.29 11.29 0 0 1 .74 2.55l2.89-.8a6.56 6.56 0 0 1 -.29-1.18l.06.4a6 6 0 0 1 -.06-.74 1.5 1.5 0 0 0 -3 0z"/><path d="m3.57 27.87a4.7 4.7 0 0 0 .27 1.4 1.54 1.54 0 0 0 1.44 1.11 1.84 1.84 0 0 0 .72-.21 1.64 1.64 0 0 0 .69-.9 3.47 3.47 0 0 0 -.07-1.89v.39c-.06-.44 0-.9 0-1.35a5.09 5.09 0 0 0 -.23-1.33 5.38 5.38 0 0 0 -1.39-2.32 1.53 1.53 0 0 0 -2.12 0 1.53 1.53 0 0 0 0 2.12 3.83 3.83 0 0 1 .28.29s.2.23 0 0 0 0 0 0a3.64 3.64 0 0 1 .38.7l-.15-.36a4.18 4.18 0 0 1 .25.92v-.4a9.3 9.3 0 0 1 0 1.18 9.23 9.23 0 0 0 .22 1.49l-.06-.4a2.28 2.28 0 0 1 0 .26v-.4a1.05 1.05 0 0 1 -.06.24h2.99a3.74 3.74 0 0 1 -.19-.73l.06.4v-.28a1.53 1.53 0 0 0 -1.5-1.5 1.52 1.52 0 0 0 -1.5 1.5z"/><path d="m21.28 4.1a4.44 4.44 0 0 0 -2.57 2.26 9.31 9.31 0 0 0 -1.1 2.92 1.67 1.67 0 0 0 .15 1.16 1.59 1.59 0 0 0 .9.69 1.57 1.57 0 0 0 1.16-.13 1.45 1.45 0 0 0 .68-.89 8.81 8.81 0 0 1 .5-1.69l-.15.36a7.61 7.61 0 0 1 .91-1.59l-.23.3a3.45 3.45 0 0 1 .53-.55l-.3.23a2.67 2.67 0 0 1 .43-.25l-.36.15.25-.07a1.51 1.51 0 0 0 1-1.85 1.53 1.53 0 0 0 -1.8-1.05z"/><path d="m23.38 4.78.09-.51a1.11 1.11 0 0 0 0-.6 1.09 1.09 0 0 0 -.18-.55 1.13 1.13 0 0 0 -.38-.43 1.13 1.13 0 0 0 -.51-.26l-.4-.06a1.48 1.48 0 0 0 -.76.21l-.3.23a1.49 1.49 0 0 0 -.39.66l-.06.53a1.22 1.22 0 0 0 0 .6 1.12 1.12 0 0 0 .18.56 1.12 1.12 0 0 0 .39.42 1.14 1.14 0 0 0 .51.27h.39a1.54 1.54 0 0 0 .76-.2l.3-.24a1.39 1.39 0 0 0 .39-.66z"/><path d="m12.11 16v.24a1.55 1.55 0 0 0 .69 1.7 1.5 1.5 0 0 0 1.81-.24 20 20 0 0 0 2.58-3.7 5.44 5.44 0 0 0 .81-2.33 1.63 1.63 0 0 0 -2-1.62c-.91.25-1.24 1.2-1.6 2s-.68 1.4-1 2.11q-1.07 2.28-2.07 4.59a1.54 1.54 0 0 0 .54 2.05 1.51 1.51 0 0 0 2.05-.54 45.93 45.93 0 0 1 2.62-4.56q1.38-2.28 2.79-4.56l-2.61-1.55q-1.32 2.94-2.72 5.82l2.74 1.15c.73-2.33 1.49-4.64 2.3-6.95a1.51 1.51 0 0 0 -2.5-1.46c-1.06 1.28-2.05 2.62-3 3.95l2.59 1.52a36.16 36.16 0 0 0 2.57-4.29 1.51 1.51 0 0 0 -2.36-1.82l-1.22 1 2.35 1.81 1.84-2.72c.93-1.4-1.24-3.11-2.36-1.81l-.12.14a1.54 1.54 0 0 0 0 2.12 1.52 1.52 0 0 0 2.12 0l.12-.14-2.35-1.82-1.84 2.76a1.48 1.48 0 0 0 .39 1.93 1.53 1.53 0 0 0 2-.11l1.23-1-2.39-1.85a35.25 35.25 0 0 1 -2.62 4.28 1.52 1.52 0 0 0 .51 2.06 1.54 1.54 0 0 0 2-.54c.82-1.13 1.65-2.27 2.55-3.35l-2.43-1.46q-1.21 3.46-2.3 7c-.5 1.6 2 2.69 2.74 1.15q1.44-2.96 2.75-5.86a1.55 1.55 0 0 0 -.54-2 1.52 1.52 0 0 0 -2.05.54q-1.41 2.27-2.79 4.56a44.82 44.82 0 0 0 -2.62 4.56l2.59 1.51c.59-1.35 1.19-2.69 1.81-4l.89-1.89a13.55 13.55 0 0 1 1-2l-.54.53.1-.06-1.16.09h.09l-.89-.69v.07l-.2-.76c0-.28-.06.22-.1.31a3.48 3.48 0 0 1 -.22.43c-.22.42-.46.83-.71 1.24a16.32 16.32 0 0 1 -1.55 2.06l2.58 1.48.05-.24a1.54 1.54 0 0 0 -1.05-1.84 1.51 1.51 0 0 0 -1.84 1z"/><path d="m15 8.8a47.37 47.37 0 0 1 -2.82 5.49l2.74 1.15a34.4 34.4 0 0 0 1.52-6.44 1.56 1.56 0 0 0 -.69-1.69 1.54 1.54 0 0 0 -1.82.23 6.87 6.87 0 0 0 -1.29 1.78l-1.17 2.12q-1.12 2.09-2.21 4.19a1.5 1.5 0 1 0 2.59 1.52 17.16 17.16 0 0 0 2.64-6.24 1.52 1.52 0 0 0 -.49-1.57 1.48 1.48 0 0 0 -1.67-.11 10.61 10.61 0 0 0 -2.66 3.77c-.74 1.39-1.4 2.82-2 4.27a1.48 1.48 0 0 0 .86 1.73 1.49 1.49 0 0 0 1.87-.61 9.17 9.17 0 0 0 1.08-4.81 1.55 1.55 0 0 0 -1.1-1.45 1.52 1.52 0 0 0 -1.69.69q-1.18 2.1-2.31 4.24a1.53 1.53 0 0 0 .54 2.05 1.51 1.51 0 0 0 2.08-.54 20.2 20.2 0 0 0 1.78-4.49 1.5 1.5 0 0 0 -2.78-1.16l-2.6 5.69 2.6 1.52 2.46-5.78-2.74-1.16a13 13 0 0 1 -1.18 3.26l2.74 1.16a26.64 26.64 0 0 0 .88-2.75q.19-.66.33-1.35a3.32 3.32 0 0 0 .13-.61c0-.29 0 .12-.21.19a1.52 1.52 0 0 0 .59-2.09 1.55 1.55 0 0 0 -2.06-.54c-1.13.53-1.21 1.93-1.47 3a31.87 31.87 0 0 1 -1 3.32c-.67 1.61 1.93 2.72 2.66 1.22a15.92 15.92 0 0 0 1.48-4 1.53 1.53 0 0 0 -.87-1.77 1.48 1.48 0 0 0 -1.87.62l-2.46 5.76a1.55 1.55 0 0 0 .59 2.05 1.5 1.5 0 0 0 2-.53l2.6-5.69-2.74-1.16a17.06 17.06 0 0 1 -1.48 3.78l2.62 1.51c.75-1.42 1.52-2.84 2.31-4.24l-2.8-.75a6.05 6.05 0 0 1 -.67 3.29l2.71 1.13c.48-1.15 1-2.28 1.62-3.38.29-.55.6-1.09.91-1.63l.51-.85c.07-.11.14-.23.22-.34-.13.18.19-.16 0 0l-2.2-1.7a14.85 14.85 0 0 1 -2.34 5.52l2.59 1.52c.69-1.35 1.39-2.68 2.11-4 .35-.65.71-1.3 1.07-1.94a5.9 5.9 0 0 1 1-1.54l-2.5-1.46a33.65 33.65 0 0 1 -1.54 6.44 1.51 1.51 0 0 0 2.75 1.16 52.17 52.17 0 0 0 3.13-6.2 1.52 1.52 0 0 0 -1.05-1.85 1.54 1.54 0 0 0 -1.83 1.05z"/><path d="m7.87 14.7c-.61 1.39-2.5 4.9-.13 5.65 2.14.67 3.18-2.62 3.11-4.18a1.51 1.51 0 0 0 -2.79-.76c-1.14 1.89-2.63 3.93-2.92 6.15a1.51 1.51 0 0 0 2.26 1.3c1.66-1.1 3.37-4 1.68-5.82-2.16-2.33-4.45 1.6-5 3.33a3.87 3.87 0 0 0 .1 3.18 2.55 2.55 0 0 0 3.24 1 6.54 6.54 0 0 0 3.64-5.55c.15-1.37-1.69-1.87-2.56-1.06a7.9 7.9 0 0 0 -2.24 3.7 2.24 2.24 0 0 0 .41 2.22 2 2 0 0 0 2.51 0 10.84 10.84 0 0 0 4.32-7.11c.18-1.18-1-2.48-2.2-1.69-1.52 1-2.44 2.95-3.15 4.56a7.62 7.62 0 0 0 -.85 2.69 2.11 2.11 0 0 0 1.89 2.29c1.69.06 3.2-1.67 3.93-3a8.69 8.69 0 0 0 1-5.58c-.23-1.33-2.12-1.39-2.74-.36a33.81 33.81 0 0 0 -2.38 4.72c-.55 1.34-1.66 4.24.22 5s3.29-1.3 4.1-2.58a23.4 23.4 0 0 0 2.05-4.67l-2.9-.8-1.67 5.97a1.5 1.5 0 0 0 .87 1.77 1.52 1.52 0 0 0 1.87-.61 26.77 26.77 0 0 0 3.24-6.7l-2.9-.8-1 3.72a12.84 12.84 0 0 0 -.76 3.86 1.5 1.5 0 0 0 2.94.4l2.55-9-2.89-.8-1.34 5.62a1.51 1.51 0 0 0 2.9.8c1.2-3.44 2.4-6.88 3.76-10.26l-2.94-.4a11.35 11.35 0 0 1 -.72 3l2.9.79a28.78 28.78 0 0 1 2.32-5.4l-2.79-.75a3.27 3.27 0 0 1 -.28 1 1.54 1.54 0 0 0 .54 2.05 1.5 1.5 0 0 0 2.05-.59l.58-1.2a1.55 1.55 0 0 0 -.54-2.06 1.52 1.52 0 0 0 -2.05.54l-.58 1.21 2.59 1.51a7.4 7.4 0 0 0 .69-2.48c.19-1.52-2.11-1.97-2.81-.74a33.66 33.66 0 0 0 -2.64 6.1 1.52 1.52 0 0 0 1.05 1.84 1.54 1.54 0 0 0 1.85-1.05 14.24 14.24 0 0 0 .82-3.82 1.49 1.49 0 0 0 -1.3-1.47 1.53 1.53 0 0 0 -1.65 1.07c-1.36 3.38-2.57 6.82-3.77 10.26l2.9.8 1.33-5.62a1.5 1.5 0 0 0 -2.89-.8l-2.55 9.05 2.95.4a11.31 11.31 0 0 1 .73-3.36l.94-3.42c.51-1.89-2.23-2.58-2.9-.8a23.79 23.79 0 0 1 -2.87 6.04l2.74 1.15 1.69-6c.53-1.88-2.26-2.61-2.9-.8a23.39 23.39 0 0 1 -1.26 3.12 4.79 4.79 0 0 1 -1.94 2.31l1.15-.15h-.23l.9.69-.1-.17.2.75a7.68 7.68 0 0 1 1-3.28 32.07 32.07 0 0 1 1.75-3.47l-2.74-.36a5.31 5.31 0 0 1 -.54 2.95 5.1 5.1 0 0 1 -.66 1.1c-.13.16-.63.75-.84.76l.76.2-.19-.1.54.54c0 .37 0 .44 0 .23s.07-.26.11-.39.16-.46.25-.69a13.06 13.06 0 0 1 .63-1.39 6.31 6.31 0 0 1 1.49-2.3l-2.2-1.7a8.8 8.8 0 0 1 -1.09 3.16 7.66 7.66 0 0 1 -1 1.3c-.25.27-.67.86-1 1h.79l-.19-.06.9.69-.1-.14.21.75c-.08-.81.84-2 1.49-2.59l-2.56-1.11a3.57 3.57 0 0 1 -.64 1.65 3.63 3.63 0 0 1 -.65.71 2.92 2.92 0 0 1 -.28.21c-.28.17-.45.07 0 .29s.15.12.3-.1a5.53 5.53 0 0 0 .21-.83 7.4 7.4 0 0 1 .5-.92 3.43 3.43 0 0 0 .37-.54c.13-.29.3-.06-.17-.07l-.7-.21c-1-.45-.08-.43-.24-.26s-.09.4-.14.52a2 2 0 0 1 -.7.82l2.26 1.29a7.09 7.09 0 0 1 1.1-2.22c.46-.81.93-1.62 1.41-2.41l-2.8-.76a2.17 2.17 0 0 1 -.1.91 1.69 1.69 0 0 1 -.13.31c0 .07-.29.36-.12.25l1.15-.15h-.11l.89.69-.1-.18.21.76c-.07.13-.07.12 0-.05s.08-.29.12-.43.14-.46.22-.69c.17-.48.35-.95.55-1.41a1.54 1.54 0 0 0 -.54-2.05 1.5 1.5 0 0 0 -2 .54z"/><path d="m19.42 8a11.76 11.76 0 0 0 0 1.78 1.5 1.5 0 0 0 .2.75 1.15 1.15 0 0 0 .39.43 1 1 0 0 0 .51.26 1.33 1.33 0 0 0 .79 0 1.87 1.87 0 0 0 1.09-.86 3 3 0 0 0 .2-.4 10.18 10.18 0 0 0 .5-1.18 1 1 0 0 0 0-.6 1.12 1.12 0 0 0 -.1-.57 1 1 0 0 0 -.38-.42 1.06 1.06 0 0 0 -.51-.27 1.51 1.51 0 0 0 -1.16.15l-.3.23a1.47 1.47 0 0 0 -.39.67l-.16.4.14-.37a4.69 4.69 0 0 1 -.21.46 3.36 3.36 0 0 1 -.22.42l.19-.3v.07l.3-.23h-.06l.36-.16 1.9 1.45a11.76 11.76 0 0 1 0-1.78 1.15 1.15 0 0 0 -.13-.58 1 1 0 0 0 -.37-.43 1.14 1.14 0 0 0 -.48-.31 1.06 1.06 0 0 0 -.58-.13 1.5 1.5 0 0 0 -1.06.44l-.24.3a1.57 1.57 0 0 0 -.2.76z"/><path d="m20.32 7.73a18.88 18.88 0 0 0 -.69 3.27l.06.4a1 1 0 0 0 .27.51 1.4 1.4 0 0 0 .77.54 1.8 1.8 0 0 0 .8 0 1.49 1.49 0 0 0 .9-.69 23.52 23.52 0 0 0 1-2.56 1.59 1.59 0 0 0 -.13-1.2 1.55 1.55 0 0 0 -.9-.69 1.52 1.52 0 0 0 -1.16.15 1.7 1.7 0 0 0 -.69.89c-.17.53-.36 1.05-.58 1.56l.15-.35c-.09.21-.18.42-.28.63l2.79.76v-.11l-.06.4a17.11 17.11 0 0 1 .62-2.73 1.5 1.5 0 0 0 -1.05-1.85 1.54 1.54 0 0 0 -1.14.18 1.57 1.57 0 0 0 -.69.89z"/><path d="m20.58 8.59a5.82 5.82 0 0 1 -.06 1l.06-.4a7.51 7.51 0 0 1 -.21.94l2.95.4v-.06l-.05.4a4 4 0 0 1 .34-1l.44-1.05-2.89-.82-.46 2.15a1.61 1.61 0 0 0 .15 1.16 1.56 1.56 0 0 0 .9.69 1.53 1.53 0 0 0 1.84-1l.48-1.5-2.74.36-.15-.35-.05-.4a1.94 1.94 0 0 1 0 .34l.05-.4a25 25 0 0 0 -.46 2.7 1.49 1.49 0 0 0 .43 1.06 1.58 1.58 0 0 0 .87.42 1.48 1.48 0 0 0 1.64-1.08l.4-2.06-2.95-.4a.57.57 0 0 1 0 .13l.06-.4v.12a1.5 1.5 0 0 0 1.05 1.85 1.54 1.54 0 0 0 1.84-1 2.37 2.37 0 0 0 .09-.65 1.51 1.51 0 0 0 -2.95-.4l-.39 2.06 2.95.4a3 3 0 0 1 0-.42l-.05.39c.06-.42.17-.84.26-1.26.05-.2.08-.41.11-.61a2.11 2.11 0 0 0 -.16-1.58 1.53 1.53 0 0 0 -1.5-.71 1.51 1.51 0 0 0 -1.24 1.07l-.48 1.5 2.89.8.46-2.15a1.61 1.61 0 0 0 -.15-1.16 1.52 1.52 0 0 0 -.9-.67 1.49 1.49 0 0 0 -1.15.15l-.31.24a1.45 1.45 0 0 0 -.38.66l-.47 1.12c-.07.16-.14.33-.2.5a3.41 3.41 0 0 0 -.17.9 1.5 1.5 0 0 0 2.94.4 7.56 7.56 0 0 0 .32-2.36 1.61 1.61 0 0 0 -.44-1.07 1.51 1.51 0 0 0 -2.56 1.07z"/><path d="m20.74 11a14.79 14.79 0 0 1 -.1 2.82l.06-.4v.23l2.95.4a5.51 5.51 0 0 1 .06-.57l-.06.4a8 8 0 0 1 .17-.85 1.61 1.61 0 0 0 -.15-1.16 1.55 1.55 0 0 0 -.9-.69 1.52 1.52 0 0 0 -1.16.15 1.56 1.56 0 0 0 -.69.9 11.26 11.26 0 0 0 -.31 1.77 1.44 1.44 0 0 0 .44 1.06 1.56 1.56 0 0 0 .86.42 1.46 1.46 0 0 0 1-.18 1.49 1.49 0 0 0 .69-.9 17.32 17.32 0 0 0 .14-3.4 1.61 1.61 0 0 0 -.44-1.06 1.52 1.52 0 0 0 -1.06-.44 1.5 1.5 0 0 0 -1.06.44 1.46 1.46 0 0 0 -.44 1.06z"/><path d="m21.15 11.89a35.56 35.56 0 0 0 -.66 4.36h3v-.42a1.51 1.51 0 0 0 -1.5-1.5 1.54 1.54 0 0 0 -1.5 1.5v.42a1.51 1.51 0 0 0 1.5 1.5 1.54 1.54 0 0 0 1.06-.44 1.74 1.74 0 0 0 .44-1.06q.06-.69.15-1.38l-.05.4c.11-.87.27-1.73.45-2.58a1.5 1.5 0 0 0 -1-1.85 1.53 1.53 0 0 0 -1.85 1.05z"/><path d="m20.73 14.81v.17l.05-.4a34.15 34.15 0 0 1 -.9 4.42 1.5 1.5 0 1 0 2.89.79 36.07 36.07 0 0 0 1-4.93 1.47 1.47 0 0 0 -.44-1.06 1.5 1.5 0 0 0 -2.12 0l-.23.3a1.48 1.48 0 0 0 -.21.76z"/><path d="m19.88 16.19c0 .24-.07.48-.1.72l.06-.4c-.18 1.33-.4 2.65-.65 4a1.61 1.61 0 0 0 .15 1.16 1.52 1.52 0 0 0 .9.69 1.51 1.51 0 0 0 1.84-1.05c.32-1.69.58-3.38.8-5.08a1.52 1.52 0 0 0 -.44-1.07 1.51 1.51 0 0 0 -1.06-.43 1.53 1.53 0 0 0 -1.07.43 1.82 1.82 0 0 0 -.43 1.07z"/><path d="m19.66 19c-.25 1.82-.5 3.64-.73 5.47h3v-.23a1.47 1.47 0 0 0 -.44-1.06 1.54 1.54 0 0 0 -1.06-.44 1.56 1.56 0 0 0 -1.06.44 1.74 1.74 0 0 0 -.37 1.01v.23a1.5 1.5 0 0 0 1.5 1.5 1.54 1.54 0 0 0 1.06-.44 1.71 1.71 0 0 0 .44-1.06l.36-2.79-.05.4c.1-.76.21-1.53.32-2.29a1.65 1.65 0 0 0 -.16-1.15 1.5 1.5 0 0 0 -2-.54 1.46 1.46 0 0 0 -.69.9z"/><path d="m19.93 19-.12 1c0 .06-.07.47 0 .17l-.06.43c-.09.62-.19 1.23-.31 1.85q-.33 1.85-.78 3.66a1.5 1.5 0 1 0 2.89.8 60.49 60.49 0 0 0 1.38-7.91 1.51 1.51 0 0 0 -1.5-1.5 1.54 1.54 0 0 0 -1.5 1.5z"/><path d="m19 22.53c0 .52-.07 1-.12 1.57 0 .24 0 .48-.08.72s0 .24 0 .36a1.57 1.57 0 0 1 0 .23c0-.17 0-.21 0-.1-.15 1-.33 2-.55 3l2.95.4v-.43a1.5 1.5 0 0 0 -3 0v.43a1.51 1.51 0 0 0 2.95.4 43.25 43.25 0 0 0 .85-6.58 1.5 1.5 0 0 0 -3 0z"/><path d="m18.53 26.39c-.09 1-.2 1.91-.33 2.86l.06-.4-.09.61 2.95.4.13-1.55a1.52 1.52 0 0 0 -.44-1.06 1.5 1.5 0 0 0 -1.06-.44 1.52 1.52 0 0 0 -1.06.44 1.71 1.71 0 0 0 -.44 1.06l-.13 1.55a1.47 1.47 0 0 0 1.3 1.47 1.48 1.48 0 0 0 1.65-1.07c.18-1.29.34-2.58.46-3.87a1.52 1.52 0 0 0 -.44-1.06 1.56 1.56 0 0 0 -1.09-.44 1.54 1.54 0 0 0 -1.06.44 1.74 1.74 0 0 0 -.44 1.06z"/><path d="m18.27 23.76-.93 3.64 2.94.4c-.13-4.2-.25-8.45 1-12.51l-3-.4a23.28 23.28 0 0 1 -.7 4.21l-.86 4.32 2.95.4a103 103 0 0 1 2.46-12.18l-2.95-.4a64.61 64.61 0 0 1 -2.1 9.21l2.95.4.5-7.2c.14-1.94-2.83-1.91-3 0-.43 4.85-2 9.65-3.2 14.35l2.95.4a43 43 0 0 1 .77-8l-2.89-.4a16.13 16.13 0 0 1 -1.23 4.83q-.82 2.55-1.71 5.09l2.9.79a62 62 0 0 0 1.11-9.9c.08-1.68-2.61-2.07-3-.4-.51 2.49-1 5-1.31 7.52a1.5 1.5 0 0 0 3 0c.28-2.26.74-4.5 1.2-6.73l-2.94-.39a57 57 0 0 1 -1 9.11 1.5 1.5 0 0 0 2.9.79c.62-1.8 1.23-3.61 1.81-5.43a17 17 0 0 0 1.27-5.28c0-1.63-2.62-2.12-2.95-.4a47.33 47.33 0 0 0 -.88 8.81 1.51 1.51 0 0 0 3 .39c1.3-5 2.84-10 3.3-15.14h-3l-.5 7.2c-.12 1.71 2.5 2 2.94.4a70.14 70.14 0 0 0 2.21-10c.21-1.69-2.55-2-2.95-.4a110.28 110.28 0 0 0 -2.56 13c-.2 1.67 2.62 2.05 3 .4l.92-4.68a25.44 25.44 0 0 0 .74-4.65 1.51 1.51 0 0 0 -2.95-.4c-1.32 4.31-1.24 8.85-1.1 13.31a1.51 1.51 0 0 0 2.95.4l.94-3.64a1.51 1.51 0 0 0 -2.9-.8z"/><path d="m15.75 30.41.11.1-.39-.66a4.21 4.21 0 0 1 .1 1.28 6 6 0 0 0 .26 1.68 1.54 1.54 0 0 0 1.45 1.11 1.51 1.51 0 0 0 1.44-1.11 7.07 7.07 0 0 0 -.09-3.45 1.52 1.52 0 0 0 -2.74-.36 6.4 6.4 0 0 0 -.41 3v3l2.94-.4a12.84 12.84 0 0 0 -3.27-5.95 1.52 1.52 0 0 0 -2.51.66 9 9 0 0 0 .06 3.9 12.6 12.6 0 0 0 1.03 3.79c.55 1.21 2.43.82 2.74-.36.36-1.34-.69-2.87-1.33-4a26.75 26.75 0 0 0 -2.29-3.38 1.51 1.51 0 0 0 -2.51.66 7.83 7.83 0 0 0 .66 3.7 17.18 17.18 0 0 0 1.39 3.31 1.48 1.48 0 0 0 1.87.61 1.47 1.47 0 0 0 .87-1.76 29.46 29.46 0 0 0 -4.51-7.78c-.85-1.06-2.56-.14-2.56 1.06a13.6 13.6 0 0 0 .86 4.41 11.38 11.38 0 0 0 1.91 3.83 1.49 1.49 0 0 0 1.46.38 1.56 1.56 0 0 0 1.05-1.05 3.25 3.25 0 0 0 -.41-2.38c-.31-.76-.64-1.51-1-2.25a30.41 30.41 0 0 0 -2.39-4 1.52 1.52 0 0 0 -2.74.36 9 9 0 0 0 .4 4 12.72 12.72 0 0 0 1.33 3.54 1.51 1.51 0 0 0 2.59 0c.72-1.33-.07-3.14-.55-4.46a23.55 23.55 0 0 0 -2-4.08c-.61-1-2.52-1-2.74.36a12.41 12.41 0 0 0 .3 4.54c.29 1.34.57 3.11 1.53 4.15a1.52 1.52 0 0 0 2.56-1.07 11 11 0 0 0 -.79-4.14 19.27 19.27 0 0 0 -1.61-3.8 1.51 1.51 0 0 0 -2.79.76 14.19 14.19 0 0 0 2 7.59 1.52 1.52 0 0 0 2.8-.76 14.35 14.35 0 0 0 -1.72-7.08 1.52 1.52 0 0 0 -2.8.76 15.82 15.82 0 0 0 .76 5l2.93-.91a36.85 36.85 0 0 0 -2.51-5c-1-1.65-3.6-.15-2.59 1.51a32.55 32.55 0 0 1 2.21 4.27 1.57 1.57 0 0 0 1.85 1 1.52 1.52 0 0 0 1-1.85 13.08 13.08 0 0 1 -.65-4.17l-2.79.76a11.2 11.2 0 0 1 1.31 5.56l2.79-.75a11.22 11.22 0 0 1 -1.6-6.08l-2.8.75a15.59 15.59 0 0 1 1.31 3.09 8.78 8.78 0 0 1 .68 3.34l2.6-.99c.15.17-.11-.39-.11-.38-.09-.3-.18-.59-.26-.88-.15-.52-.27-1-.38-1.56a8.63 8.63 0 0 1 -.31-2.94l-2.75.36a18.28 18.28 0 0 1 1.5 3c.21.53.39 1.07.56 1.61.08.27.16.55.23.82a1.89 1.89 0 0 0 .1.41c.08.16 0 0 .12-.29h2.59a9.74 9.74 0 0 1 -1-2.62c-.11-.48-.21-1-.3-1.46a3.12 3.12 0 0 1 -.15-1.12l-2.74.36a30.22 30.22 0 0 1 2.09 3.41c.3.58.58 1.17.85 1.77.11.25.21.5.31.75l.15.41a2.31 2.31 0 0 1 .1.28q.09.28 0-.3l2.59-.66a7.85 7.85 0 0 1 -1.21-2.72 10.46 10.46 0 0 1 -.69-3.4l-2.6 1.06a24.87 24.87 0 0 1 3.71 6.46l2.79-1.15a13.05 13.05 0 0 1 -1-2.4c-.13-.4-.25-.82-.37-1.23a4.29 4.29 0 0 1 -.32-1.12l-2.5.67a22.84 22.84 0 0 1 1.61 2.4c.25.43.49.86.71 1.3l.33.67c.06.13.12.25.17.38s.07 0 0-.27l2.75-.36a9.8 9.8 0 0 1 -.71-2.78 5.81 5.81 0 0 1 -.09-2.52l-2.58.66a9.86 9.86 0 0 1 2.5 4.63 1.51 1.51 0 0 0 3-.4c0-.85 0-1.71 0-2.56 0-.39 0-.78 0-1.16v-.7-.23c0-.35 0-.32-.07.11l-2.74-.35a3.9 3.9 0 0 1 .14 1.84h2.89c-.4-1.21.18-2.74-.85-3.73-1.39-1.35-3.51.77-2.12 2.12z"/><path d="m3.46 28.36a6.15 6.15 0 0 0 0 2.7 1.52 1.52 0 0 0 1.45 1.1 1.58 1.58 0 0 0 1.45-1.1c.41-1.08-.4-2.43-.93-3.34a1.51 1.51 0 0 0 -2.79.76 5.25 5.25 0 0 0 .36 1.93 1.52 1.52 0 0 0 1.65 1.08 1.48 1.48 0 0 0 1.28-1.49 6 6 0 0 0 -.71-2.37 1.51 1.51 0 0 0 -2.8.75 7.22 7.22 0 0 0 .26 1.62 1.49 1.49 0 0 0 1.64 1.07 1.47 1.47 0 0 0 1.3-1.47 6.55 6.55 0 0 0 -.55-2c-.73-1.56-3.2-.45-2.75 1.16a37.19 37.19 0 0 0 2.92 7.24 16.82 16.82 0 0 0 2.09 3.25 35.65 35.65 0 0 0 2.95 2.75 1.53 1.53 0 0 0 2.12 0 1.51 1.51 0 0 0 0-2.12c-.93-.83-1.93-1.62-2.79-2.52a12.26 12.26 0 0 1 -1.78-2.86 32.76 32.76 0 0 1 -2.61-6.5l-2.74 1.13a1.65 1.65 0 0 1 .14.48l3-.4a3.73 3.73 0 0 1 -.15-.81l-2.79.76a2.32 2.32 0 0 1 .3.86l2.95-.4a2.82 2.82 0 0 1 -.22-1.14l-2.8.75a8.07 8.07 0 0 1 .46.87 1.86 1.86 0 0 1 .1.25.87.87 0 0 1 .07.17c0 .19 0 .1 0-.26h2.9a2.6 2.6 0 0 1 0-1.11 1.5 1.5 0 1 0 -2.89-.79z"/><path d="m8.84 40.86a4.67 4.67 0 0 0 2 1.75c.32.16.64.31.94.49l.21.13c.12.07.33.29 0 0a4.64 4.64 0 0 1 .39.38l1.82-2.36a8.1 8.1 0 0 0 -1.32-.82 1.53 1.53 0 0 0 -2 .54 1.58 1.58 0 0 0 -.09 1.49 2.08 2.08 0 0 0 .83.93 7.85 7.85 0 0 0 1 .61 13.28 13.28 0 0 0 1.33.61l.53.19.27.08h.18c.17.05.12 0-.14-.06l-.54-.54v.05l-.2-.76v.06l.44-1.06.67-.38a.28.28 0 0 1 -.13 0l.4-.05h-.14l.4.05a.92.92 0 0 1 .32.18c.11.1.12.1.05 0a1.52 1.52 0 0 0 -1.13-.37 1.54 1.54 0 0 0 -1.06.44 1.47 1.47 0 0 0 -.44 1.06 1.68 1.68 0 0 0 .44 1.06 1.9 1.9 0 0 0 2.71.12 1.61 1.61 0 0 0 0-2.23 2.78 2.78 0 0 0 -1.2-.57c-.24-.07-.47-.16-.7-.25s.27.13.09.05l-.17-.08-.33-.16a7 7 0 0 1 -.66-.37 3.28 3.28 0 0 1 -.31-.2l-.16-.1h.05a.89.89 0 0 1 .37.56l.05.4v-.06l-.21.76-2.04.57a9.05 9.05 0 0 1 1.32.82 1.45 1.45 0 0 0 1.15.15 1.5 1.5 0 0 0 .66-2.5 5.78 5.78 0 0 0 -1.93-1.34 7.65 7.65 0 0 1 -.88-.5c-.31-.21.21.2 0 0l-.15-.13c-.11-.11-.21-.34 0 0l-.15-.22a1.5 1.5 0 0 0 -2-.54 1.53 1.53 0 0 0 -.54 2z"/><path d="m16 41.65a14 14 0 0 0 -.13-5.7 1.5 1.5 0 0 0 -2.95.4l-.11 3.5 3-.4a17.07 17.07 0 0 0 -1.85-3.85 1.51 1.51 0 0 0 -2.74.36 13.73 13.73 0 0 0 -.49 2.91l2.95-.4a7.54 7.54 0 0 0 -1.68-3.1 1.44 1.44 0 0 0 -.66-.39 1.5 1.5 0 0 0 -1 .08 1.53 1.53 0 0 0 -.92 1.37 4.78 4.78 0 0 0 .58 2.43l2.59-1.52a15 15 0 0 1 -.85-1.46l-2.6 1.52a10.79 10.79 0 0 0 1.26 1.73 6.86 6.86 0 0 0 .65.67 1.9 1.9 0 0 0 1 .58 1.53 1.53 0 0 0 1.54-.73c.55-.9 0-1.94-.52-2.72a8 8 0 0 0 -1.35-1.61 1.53 1.53 0 0 0 -1.72-.24 1.55 1.55 0 0 0 -.69 1.7 3.68 3.68 0 0 0 1.18 1.89c.19.19.39.37.57.58s0-.09-.07-.1.09.13.12.16a4 4 0 0 1 .27.55l-.16-.36a5.43 5.43 0 0 0 .78 1.5 2.53 2.53 0 0 0 1.37.84 1.62 1.62 0 0 0 1.16-.16 1.5 1.5 0 0 0 -.35-2.68h-.21l.36.15-.13-.15c-.18-.08.13.07.13.11l-.1-.1c-.18-.16.16.25.07.11a6 6 0 0 1 -.32-.62l.16.36a6.12 6.12 0 0 0 -.57-1.18 5.59 5.59 0 0 0 -.7-.83l-.55-.55-.13-.15c-.16-.18.21.32.08.1a2.11 2.11 0 0 1 -.18-.33l.15.36a1.58 1.58 0 0 1 -.09-.31l-2.51 1.47c.17.16.34.32.49.49s.15.17.22.25-.19-.26-.09-.11l.13.17a7.93 7.93 0 0 1 .67 1.21l-.16-.35-.05-.4v.06l.05-.4v.05l.15-.36.9-.69 1.46.38a8 8 0 0 1 -1-1l-.11-.13c-.13-.16.05.07.08.11a1.42 1.42 0 0 1 -.2-.28 6.89 6.89 0 0 1 -.4-.64 1.5 1.5 0 0 0 -2.64 1.6c.25.5.55 1 .85 1.46a1.5 1.5 0 0 0 2.59-1.52l-.07-.15.15.35a3.33 3.33 0 0 1 -.23-.82l.05.4a3.19 3.19 0 0 1 0-.69l-2.58 1.06c.16.2-.16-.22-.06-.08l.1.14c.08.11.15.23.22.35a4.63 4.63 0 0 1 .36.7l-.15-.36a5.89 5.89 0 0 1 .33 1 1.5 1.5 0 0 0 2.94-.4c0-.29 0-.57.09-.85l-.06.4a13.61 13.61 0 0 1 .33-1.63l-2.74.36a10.84 10.84 0 0 1 1.18 2.2l-.13-.32q.27.63.51 1.29a1.65 1.65 0 0 0 .69.89 1.54 1.54 0 0 0 1 .18 1.5 1.5 0 0 0 1.3-1.47l.11-3.5-2.94.4c.09.39.16.79.22 1.19l-.06-.4a11.87 11.87 0 0 1 0 3.15l.06-.39-.09.55a1.64 1.64 0 0 0 .11 1.11 1.5 1.5 0 0 0 2.78-.35z"/><path d="m18.52 27.48a5.41 5.41 0 0 1 .68 1.12 9.84 9.84 0 0 1 .09 1.64c.13 1.23.36 2.44.38 3.68a33.19 33.19 0 0 1 -.45 7.25h2.89a46.88 46.88 0 0 1 -2.11-12h-3c.34 3.07.68 6.15.73 9.25l2.95-.4a16.33 16.33 0 0 0 -.68-2.77c-.61-1.82-3.51-1-2.89.8a17.09 17.09 0 0 1 .67 2.76c.25 1.69 3 1.26 2.94-.4-.05-3.1-.39-6.18-.73-9.25a1.54 1.54 0 0 0 -1.5-1.5 1.51 1.51 0 0 0 -1.5 1.5 49.81 49.81 0 0 0 2.23 12.84 1.51 1.51 0 0 0 2.89 0 35.76 35.76 0 0 0 .56-8.33c0-1.33-.35-2.63-.43-4a9.54 9.54 0 0 0 -.18-2 7.94 7.94 0 0 0 -.95-1.67 1.5 1.5 0 0 0 -2.59 1.51z"/><path d="m16.4 34.37a18.61 18.61 0 0 0 .6 5.26 1.54 1.54 0 0 0 1.45 1.1 1.58 1.58 0 0 0 1.45-1.1c.39-1.14-.52-2.36-1.1-3.29a26.3 26.3 0 0 0 -1.88-2.56 1.51 1.51 0 0 0 -2.36.3 2.12 2.12 0 0 0 .29 2.25l.93 1.53 1.81 3a1.5 1.5 0 0 0 2.74-1.15 6.93 6.93 0 0 0 -2.33-3.58 1.55 1.55 0 0 0 -1.26-.41 1.41 1.41 0 0 0 -1.1.72 2.34 2.34 0 0 0 -.23 1.35 3.82 3.82 0 0 0 .36 1.08 6.06 6.06 0 0 0 .72 1.2 7.78 7.78 0 0 0 2.51 2.21 1.51 1.51 0 0 0 1.51 0 1.64 1.64 0 0 0 .8-1.41 2.24 2.24 0 0 0 -.63-1.36 7.75 7.75 0 0 0 -1.34-1.28 6.61 6.61 0 0 0 -1.39-.8c-.83-.37-1.77-.73-2.59-.1-1.54 1.2-.2 3.17.82 4.17a5.43 5.43 0 0 0 3.77 1.82 1.51 1.51 0 0 0 1.3-2.25 4.77 4.77 0 0 0 -1.9-2c-.94-.53-2.35-.93-3.29-.21-1.28 1-.7 2.66.39 3.5a6.26 6.26 0 0 0 2.8 1.23 1.52 1.52 0 0 0 1.45-.38 1.5 1.5 0 0 0 .39-1.46 3.24 3.24 0 0 0 -2.26-2 3.59 3.59 0 0 0 -3 0 1.9 1.9 0 0 0 -1 1.61 2.18 2.18 0 0 0 1.17 1.83 5 5 0 0 0 2.83.88 1.51 1.51 0 0 0 1.06-2.56c-.83-1-2.88-1.49-3.68-.15a1.76 1.76 0 0 0 .31 2.19 4.29 4.29 0 0 0 1.65.9l-.71-2.45-.07.07.66-.38h-.11a1.52 1.52 0 0 0 -1.05 1.84 1.53 1.53 0 0 0 1.85 1.05 1.71 1.71 0 0 0 .84-.49 1.52 1.52 0 0 0 -.66-2.51c-.16-.06-.18-.07 0 0l-.19-.1c-.31-.17-.07-.08 0 .1l.2.76v-.14l-.2.76.05-.09-.54.54a.85.85 0 0 1 -.58.1h.07c-.22-.19-.08 0 0 .1l1.06-2.56h-.29c.15 0 .14 0 0 0a3.17 3.17 0 0 1 -.5-.15c-.1 0-.09 0 0 0l-.26-.14-.24-.17a1.33 1.33 0 0 1 .19.14l.2.76v-.12l-.2.75a1 1 0 0 1 -.4.33c-.1 0-.21 0 0 0 .41 0-.31-.1.13 0l.36.09a2.42 2.42 0 0 1 .35.12h.1a1.53 1.53 0 0 0 .26.16c-.08.05-.25-.3-.26-.33l1.77-1.77a4.54 4.54 0 0 1 -.79-.19c-.07 0-.31-.11-.12 0l-.4-.2-.32-.19-.1-.06c-.19-.11-.05-.07 0 .11l-1 1.33c-.18 0-.21 0-.09 0l.3.07s.36.13.18.05.12.07.16.09a3.28 3.28 0 0 1 .31.2c-.17-.11-.06 0 0 0s.15.15.22.22c.25.27-.11-.22.07.1l.18.33 1.29-2.26h-.29c.16 0 .14 0 0 0h-.05l-.27-.14-.48-.31c-.14-.1-.15-.11 0 0l-.16-.13a7.69 7.69 0 0 1 -.75-.76q-.16-.19 0 0a1.88 1.88 0 0 1 -.16-.23c-.08-.16-.09-.16 0 0a1 1 0 0 1 0 .34l-.39.67.06-.07-.66.39c-.54-.06-.67-.05-.38 0l.26.08c.33.1-.14-.09.14 0a6.71 6.71 0 0 1 .86.51l.17.11c-.13-.09-.13-.09 0 0l.34.32c.11.11.21.23.32.35s.11.13 0 0a.4.4 0 0 1 .11.19l-.2-.76v.12l.74-1.3h-.05 1.45c-.15-.09-.31-.17-.46-.27s-.48-.36-.24-.16a9 9 0 0 1 -.77-.74c-.11-.14-.11-.14 0 0l-.15-.22a4.43 4.43 0 0 1 -.29-.46 3.58 3.58 0 0 1 -.24-.48c.06.16.06.15 0 0 0 .17 0 .16 0 0l-.2.75.05-.12-2.36.3a5.32 5.32 0 0 1 .61.55c.1.1.18.2.27.3-.19-.22.07.11.09.14a6.16 6.16 0 0 1 .4.71c-.09-.19 0 0 0 .08a3.88 3.88 0 0 1 .14.45l2.75-1.15-1.55-2.55-.75-1.24-.32-.59-.22-.36-.09-.15c-.07-.12-.06-.09 0 .08l-.15 1.15v-.09l-2.35.31a17.53 17.53 0 0 1 1.33 1.66c.2.3.39.61.57.92l.3.55.15.27a.75.75 0 0 1 -.06-.51h2.9a15.1 15.1 0 0 1 -.45-4.46 1.5 1.5 0 0 0 -3 0z"/><path d="m15.21 42.5-.56 1a1.52 1.52 0 0 0 .9 2.2 48.25 48.25 0 0 0 6.68 1.75 10.31 10.31 0 0 0 3.59.09 17.46 17.46 0 0 1 3.12-.49c1.93 0 1.93-3 0-3a15.85 15.85 0 0 0 -3.35.49 6.9 6.9 0 0 1 -2.79 0 49.5 49.5 0 0 1 -6.46-1.7l.9 2.2.56-1c.92-1.7-1.67-3.21-2.59-1.51z"/><path d="m28.44 44.15-1.86.67a1.5 1.5 0 0 0 .8 2.89c2.08-.36 4.62-.47 6.41-1.71 2.1-1.44 1-4.13.25-6a27 27 0 0 1 -1.24-6 13.09 13.09 0 0 0 -.69-2.89c-.36-.92-1.1-1.75-1.36-2.69a1.5 1.5 0 0 0 -2.89.8 11.34 11.34 0 0 0 1.14 2.28 8.54 8.54 0 0 1 .74 2.31c.33 1.74.38 3.53.83 5.25a23.56 23.56 0 0 0 .9 2.56 12.29 12.29 0 0 1 .42 1.3 4.31 4.31 0 0 0 .11.49c.11.28 0 .21.11.11a6.62 6.62 0 0 1 -2.43.75l-3.11.55.8 2.89 1.86-.71c1.8-.65 1-3.55-.79-2.89z"/><path d="m27.78 29.23a58.07 58.07 0 0 0 .2 6.6c.17 1.92.28 4 1.37 5.68 0 .07.55.86.55.87s.24-.53.27-.49-.59.17-.64.18a14 14 0 0 1 -2.89.18c-1.76 0-4 .61-5.59-.27l-.36 2.74 8.66-1.66a1.51 1.51 0 0 0 0-2.89 19.19 19.19 0 0 0 -4.41-.25l-2.1.13-1.12.05c-.13 0-1.09-.08-.69.12l.54.53-.06-.13v1.51l.08-.15-.54.54a11.33 11.33 0 0 1 3.37-.94 35.41 35.41 0 0 1 3.69-.58 1.51 1.51 0 0 0 1.47-1.3 1.46 1.46 0 0 0 -1.07-1.64 27 27 0 0 0 -7-.12 1.5 1.5 0 0 0 0 3 23.72 23.72 0 0 0 4.69-.06c1.41-.16 3.19-.25 4.37-1.12.94-.69 1-2.45-.36-2.74a24.89 24.89 0 0 0 -5.1-.31c-1.73 0-3.46 0-5.19.08l.4 2.95c2.65-.43 5.4-.38 7.94-1.41a1.52 1.52 0 0 0 1.07-1.24 1.46 1.46 0 0 0 -.72-1.5 8.75 8.75 0 0 0 -3.49-.48c-1.22 0-2.43 0-3.63.1a1.5 1.5 0 0 0 0 3 25.16 25.16 0 0 0 9-1.1 1.52 1.52 0 0 0 .36-2.74c-1.4-.87-3.28-.7-4.86-.69s-3.43.08-5.15.16l.4 3 8.33-1.42a1.52 1.52 0 0 0 0-2.9 39.74 39.74 0 0 0 -8.79-.07c-1.92.09-1.95 3 0 3a31.39 31.39 0 0 0 8.92-1.33 1.5 1.5 0 0 0 -.4-2.94 55.23 55.23 0 0 0 -7.39 0v3c1.54-.16 3.08-.32 4.61-.55 1.34-.21 3-.3 4-1.32a1.52 1.52 0 0 0 0-2.12 4.35 4.35 0 0 0 -2-1.16 6.43 6.43 0 0 0 -2.37.54 10.37 10.37 0 0 1 -2.07.32 1.89 1.89 0 0 1 -1.36-.26c-1.41-1.31-3.54.81-2.12 2.12a5 5 0 0 0 4.1 1.09 14.81 14.81 0 0 0 2.38-.41 6.45 6.45 0 0 0 1-.32c.31-.08.33-.11.06-.1s-.24 0-.09.06.39.3.33.24v-2.18c-.2.21-.87.23-1.13.28-.6.12-1.21.22-1.81.3-1.18.17-2.36.29-3.54.41a1.55 1.55 0 0 0 -1.5 1.5 1.51 1.51 0 0 0 1.5 1.5 55.23 55.23 0 0 1 7.39 0l-.29-2.95a28.33 28.33 0 0 1 -8.12 1.22v3c1.37-.07 2.74-.12 4.11-.14a19.35 19.35 0 0 1 3.88.11v-2.9l-8.33 1.43c-1.66.28-1.28 3 .4 2.94 1.52-.07 3.05-.14 4.57-.16h2.29a3.16 3.16 0 0 1 1.64.26l.35-2.74a23 23 0 0 1 -8.24 1v3c1-.06 2-.1 3.07-.1h1.4a3.92 3.92 0 0 1 1.14.05l.36-2.74c-2.53 1-5.29 1-7.94 1.41-1.68.27-1.27 3 .4 2.94s3.27-.07 4.9-.08a22.71 22.71 0 0 1 4.59.2l-.36-2.74a7.23 7.23 0 0 1 -3.4.77 24.88 24.88 0 0 1 -4.14 0v3a24.34 24.34 0 0 1 6.15 0l.4-2.95a43.87 43.87 0 0 0 -5.33.88c-1.36.32-4.59.82-4 2.9.49 1.93 3.21 1.38 4.61 1.27a21.64 21.64 0 0 1 5.15.05v-2.88l-8.65 1.66a1.51 1.51 0 0 0 -.36 2.74c2.23 1.21 4.68.7 7.1.68 2 0 5.8.18 6.21-2.5.19-1.24-.53-2-1.1-3a7.06 7.06 0 0 1 -.66-2.75 57.27 57.27 0 0 1 -.31-7.75c0-1.93-3-1.93-3 0z"/><path d="m31.45 45.61c2 1 3.87.24 5.47-1 .69-.56 1.41-1.1 2.08-1.69a13 13 0 0 0 1.74-2.36c1.21-1.69.23-4.35-.25-6.18s-1.16-3.7-2.87-4.86a8.72 8.72 0 0 0 -5-1.53 2.73 2.73 0 0 0 -2.21 1.34c-.54 1 .1 2.13.57 3a13.22 13.22 0 0 1 1.2 2.52 21.74 21.74 0 0 1 .52 2.88c.24 1.64.16 4.35 2.1 5 2.43.79 4.14-2.28 4-4.3a9.37 9.37 0 0 0 -1.06-3.16c-.26-.54-.53-1.08-.8-1.63l-.4-.81-.24-.49c-.08-.36-.14-.44-.17-.27l-.44 1.06.14-.13-.66.39c.22-.07.29 0 .25-.07l-.54-.53a9.08 9.08 0 0 1 .89 1.89c.3.7.6 1.39.89 2.09q.89 2.13 1.74 4.27a1.52 1.52 0 0 0 2.74.36c.86-1.4 1.86-2.8 2.73-4.22a33.57 33.57 0 0 0 2.13-4.48l-2.89-.79c-.43 1.26-.91 2.51-1.46 3.73a1.5 1.5 0 1 0 2.59 1.51 51.77 51.77 0 0 0 2.34-5.21 9.38 9.38 0 0 0 .46-2.46 7.71 7.71 0 0 1 .34-2.48l-2.74-.36c.63 1.64-1.21 3.1-2.12 4.26a45 45 0 0 0 -3.18 4.89l2.74 1.16c.77-3.67 3.43-6.56 3.83-10.37.16-1.52-2.11-2-2.79-.76a57.08 57.08 0 0 1 -4.12 6.72l2.8.75a26.89 26.89 0 0 1 1.46-7c.49-1.59-2-2.73-2.74-1.16a69.46 69.46 0 0 1 -3.3 6.35l2.74.36a7.2 7.2 0 0 1 .49-2.53c.24-.95.5-1.9.75-2.86a1.5 1.5 0 0 0 -2.74-1.15l-3.39 4.84 2.74 1.16a4.68 4.68 0 0 1 .32-1.18 1.53 1.53 0 0 0 -.53-2 1.51 1.51 0 0 0 -2.06.54 7.9 7.9 0 0 0 -.62 1.89 1.51 1.51 0 0 0 2.74 1.16l3.39-4.85-2.74-1.15c-.59 2.19-1.62 4.69-1.24 7 .21 1.32 2.13 1.39 2.74.35a69.29 69.29 0 0 0 3.3-6.34l-2.74-1.16a30 30 0 0 0 -1.57 7.77c-.05 1.62 2 1.86 2.79.76a57.08 57.08 0 0 0 4.11-6.73l-2.8-.75a13.67 13.67 0 0 1 -1.74 4.64 19.65 19.65 0 0 0 -2 4.93 1.51 1.51 0 0 0 2.74 1.16 38.1 38.1 0 0 1 3.77-5.57c1.38-1.63 2.69-3.69 1.83-5.9-.4-1-2.18-1.68-2.74-.35a8.18 8.18 0 0 0 -.64 2.63 14.45 14.45 0 0 1 -.25 2.46 29.64 29.64 0 0 1 -2.22 5.07l2.59 1.51c.65-1.45 1.25-2.93 1.76-4.45a1.51 1.51 0 0 0 -1-1.88 1.53 1.53 0 0 0 -1.84 1.05 48.67 48.67 0 0 1 -4.64 8l2.75.36c-.62-1.54-1.24-3.07-1.88-4.59a37.85 37.85 0 0 0 -1.8-4.18 2.71 2.71 0 0 0 -3.76-.71c-1.52 1.09-.27 2.84.33 4.07s1.6 2.59 1.63 3.91c0 .43-.19.56-.27.93l-.14.14c.54.44.77.51.71.21a2.86 2.86 0 0 0 -.14-.78c-.07-.44-.13-.87-.19-1.31a24.6 24.6 0 0 0 -.76-4.23 12.3 12.3 0 0 0 -1-2.09c-.23-.43-.83-1.23-.83-1.61l-.2.76c-.12.22-.28 0-.13.13a2.54 2.54 0 0 0 .41 0 6.33 6.33 0 0 1 1 .31 5.66 5.66 0 0 1 2 .93c1.19 1 1.42 3.23 1.72 4.66.1.47.18.93.27 1.4a.78.78 0 0 1 -.19.85 8.17 8.17 0 0 1 -1.42 1.83c-.65.52-1.29 1.09-2 1.57-.44.33-1.16.81-1.73.52-1.72-.86-3.24 1.73-1.52 2.59z"/><path d="m26.58 3.65v-.13l-.69 1.69s1.37.23 1.58.27c.66.1 1.32.22 2 .37a28.42 28.42 0 0 1 4 1.24c2.43 1 4.11 2.7 5.85 4.59a21.13 21.13 0 0 1 4.33 6.38 17 17 0 0 1 1.09 7.8c-.17 1.92 2.83 1.91 3 0a19.28 19.28 0 0 0 -1.42-9.13 25.71 25.71 0 0 0 -5.45-7.73 24.59 24.59 0 0 0 -3.24-3 15.73 15.73 0 0 0 -4-2 28.39 28.39 0 0 0 -4.63-1.28c-1.24-.23-3.58-.94-4.68-.1a1.58 1.58 0 0 0 -.69 1.69v.13c.33 1.9 3.22 1.1 2.9-.79z"/><path d="m45.78 27.29a23.29 23.29 0 0 0 -1-7.67 18.57 18.57 0 0 0 -3.21-6.76 24.65 24.65 0 0 0 -4.88-5 19.59 19.59 0 0 0 -7-2.95 1.53 1.53 0 0 0 -1.9 1.45 33.7 33.7 0 0 0 1.1 12.87 1.51 1.51 0 0 0 2.89 0 23.2 23.2 0 0 0 .48-5.33c0-1.9 0-3.79 0-5.69l-2.94.4c.68 4.26 2.26 8.3 3.09 12.53.33 1.69 2.94 1.26 3-.4 0-3.66-.13-7.31-.43-11l-3 .4a81.78 81.78 0 0 0 3.36 13.08c.55 1.48 3 1.41 2.94-.4a91.52 91.52 0 0 0 -1.43-12l-2.89.8c.65 2.42 1.94 4.58 2.81 6.91a21 21 0 0 1 1.36 7.47 1.5 1.5 0 0 0 3 0 25.42 25.42 0 0 0 -1-7.34c-.56-2.35-1.24-4.66-2-6.95l-2.89.79a58.51 58.51 0 0 0 2.76 6.55 22.37 22.37 0 0 1 2.22 6.65c.26 1.65 3.15 1.28 2.95-.4a54.72 54.72 0 0 0 -3-12.42c-.66-1.8-3.56-1-2.89.79a51.91 51.91 0 0 1 2.84 11.63l2.94-.4a23.1 23.1 0 0 0 -2.18-6.67 65.37 65.37 0 0 1 -2.79-6.57c-.64-1.8-3.51-1.05-2.89.79.72 2.17 1.37 4.36 1.91 6.58a23.29 23.29 0 0 1 1 6.92h3a23.5 23.5 0 0 0 -1.31-7.84c-.87-2.47-2.25-4.73-2.94-7.27-.51-1.88-3.25-1.07-2.89.8a84.62 84.62 0 0 1 1.32 11.21l2.95-.4a82.85 82.85 0 0 1 -3.34-13.08c-.32-1.64-3.08-1.29-2.94.4.3 3.65.45 7.3.43 11l2.94-.39c-.83-4.23-2.41-8.28-3.09-12.54-.27-1.69-3-1.26-3 .4s0 3.52 0 5.28a21 21 0 0 1 -.38 4.95h2.94a31.58 31.58 0 0 1 -1-12.08l-1.9 1.44a17.52 17.52 0 0 1 6 2.45 20.21 20.21 0 0 1 4.29 4.42 16.11 16.11 0 0 1 2.7 5.76 20.84 20.84 0 0 1 .88 6.87 1.51 1.51 0 0 0 1.5 1.5 1.53 1.53 0 0 0 1.5-1.5z"/><path d="m30.22 12.74-1.44-3.46a1 1 0 0 0 -.26-.51 1.24 1.24 0 0 0 -.43-.39 1.5 1.5 0 0 0 -2.09.54 1.47 1.47 0 0 0 -.15 1.16l1.43 3.46a1.26 1.26 0 0 0 .27.51 1.18 1.18 0 0 0 .42.38 1.57 1.57 0 0 0 1.16.16 1.54 1.54 0 0 0 .89-.69 1.45 1.45 0 0 0 .16-1.16z"/><path d="m26.68 11.61c.1.2.2.41.28.62l-.15-.36a10.36 10.36 0 0 1 .49 1.42 1.55 1.55 0 0 0 .69.9 1.12 1.12 0 0 0 .56.18 1.19 1.19 0 0 0 .59 0 1.49 1.49 0 0 0 .9-.69 1.56 1.56 0 0 0 .15-1.16 12.83 12.83 0 0 0 -.92-2.39 1.13 1.13 0 0 0 -.38-.43 1.11 1.11 0 0 0 -.52-.26 1 1 0 0 0 -.59 0 1.12 1.12 0 0 0 -.56.18 1.5 1.5 0 0 0 -.69.89l-.05.4a1.54 1.54 0 0 0 .2.76z"/><path d="m26.5 11.68a6.45 6.45 0 0 0 .37 1.37 8 8 0 0 0 .78 1.58 1.54 1.54 0 0 0 1.29.74 1.48 1.48 0 0 0 .76-.21 1.61 1.61 0 0 0 .54-.53 1.63 1.63 0 0 0 .24-.7 2 2 0 0 0 0-.76 1.5 1.5 0 0 0 -1.85-1 1.49 1.49 0 0 0 -.89.68 1.56 1.56 0 0 0 -.19 1.15s0 0 0 .08v-.4a.25.25 0 0 1 0 .08l.06-.4s0 .05 0 .07l.15-.36a.43.43 0 0 1 0 .07h2.59a6.85 6.85 0 0 1 -.56-1l.16.36a6.47 6.47 0 0 1 -.44-1.56 1.26 1.26 0 0 0 -.27-.51 1.18 1.18 0 0 0 -.42-.38 1.57 1.57 0 0 0 -1.16-.16 1.59 1.59 0 0 0 -.9.69l-.15.36a1.55 1.55 0 0 0 0 .8z"/><path d="m26.85 11.76a11.81 11.81 0 0 0 1.15 3.48l.24.3a1 1 0 0 0 .48.31 1.44 1.44 0 0 0 1 .08 1.78 1.78 0 0 0 .66-.39 1.54 1.54 0 0 0 .44-1.06 8.59 8.59 0 0 0 -.57-2.75 1.14 1.14 0 0 0 -.27-.51 1.12 1.12 0 0 0 -.42-.39 1.52 1.52 0 0 0 -1.16-.15 1.5 1.5 0 0 0 -.89.69 1.42 1.42 0 0 0 -.15 1.15 7.47 7.47 0 0 1 .45 1.73l-.05-.4q0 .32.06.63l2.79-.75c-.09-.19-.18-.39-.26-.58l.15.36a10.79 10.79 0 0 1 -.76-2.51 1.5 1.5 0 0 0 -1.85-1.05 1.5 1.5 0 0 0 -.89.69l-.15.36a1.33 1.33 0 0 0 0 .79z"/><path d="m28.55 9.57-.15-.06.36.15a1.35 1.35 0 0 1 -.33-.19l.31.24a1.72 1.72 0 0 1 -.27-.27l.23.3a1.45 1.45 0 0 1 -.2-.34l.15.36a2.17 2.17 0 0 1 -.07-.24 1.14 1.14 0 0 0 -.27-.52 1.34 1.34 0 0 0 -1-.57 1.22 1.22 0 0 0 -.6 0l-.36.15a1.45 1.45 0 0 0 -.53.54l-.16.36a1.51 1.51 0 0 0 0 .79l.06.2a5 5 0 0 0 .28.53l.11.18a4.82 4.82 0 0 0 .35.44l.15.14a3.79 3.79 0 0 0 .45.34l.19.1a4.93 4.93 0 0 0 .53.22 1.11 1.11 0 0 0 .6 0 1 1 0 0 0 .56-.17 1.31 1.31 0 0 0 .42-.39 1.14 1.14 0 0 0 .27-.51v-.4a1.57 1.57 0 0 0 -.2-.76l-.24-.3a1.51 1.51 0 0 0 -.66-.38z"/><path d="m26.79 11.24a1.5 1.5 0 0 0 0-3 1.5 1.5 0 0 0 0 3z"/><path d="m26.79 11.16a1.5 1.5 0 0 0 0-3 1.5 1.5 0 0 0 0 3z"/><path d="m25.5 10.41c.16.35.31.7.46 1.05l-.15-.36a27.76 27.76 0 0 1 1.19 3.32 1.51 1.51 0 0 0 1.84 1.05 1.54 1.54 0 0 0 1.05-1.85 30.46 30.46 0 0 0 -1.8-4.72 1.5 1.5 0 0 0 -2.74.36 1.65 1.65 0 0 0 .15 1.15z"/><path d="m26.77 13.64a17.83 17.83 0 0 0 1.35 3.36 1.54 1.54 0 0 0 .89.69 1.5 1.5 0 0 0 1.85-1.05 1.67 1.67 0 0 0 -.15-1.16 13.17 13.17 0 0 1 -.57-1.2l.15.36a18.81 18.81 0 0 1 -.63-1.78 1.55 1.55 0 0 0 -.69-.9 1.59 1.59 0 0 0 -1.15-.15 1.5 1.5 0 0 0 -1.05 1.85z"/><path d="m30.1 12.24-.5-1.45a1.26 1.26 0 0 0 -.27-.51 1.18 1.18 0 0 0 -.42-.38 1.16 1.16 0 0 0 -.56-.18 1.11 1.11 0 0 0 -.6 0l-.36.16a1.61 1.61 0 0 0 -.54.53l-.15.36a1.55 1.55 0 0 0 0 .8l.5 1.43a1.14 1.14 0 0 0 .27.51 1.31 1.31 0 0 0 .42.39 1 1 0 0 0 .56.17 1.11 1.11 0 0 0 .6 0l.36-.15a1.61 1.61 0 0 0 .53-.54l.16-.38a1.55 1.55 0 0 0 0-.8z"/><path d="m26.85 11.7q.75 1.32 1.38 2.7l.3.67c.06.15 0 .13 0-.07 0 .06.05.13.08.19l.12.29c.19.49.37 1 .54 1.48a1.5 1.5 0 0 0 2.9-.8 36.12 36.12 0 0 0 -2.7-6 1.5 1.5 0 1 0 -2.59 1.52z"/><path d="m33 23.24.85 1a1.24 1.24 0 0 0 .48.31 1.36 1.36 0 0 0 1.16 0 1.17 1.17 0 0 0 .48-.31l.24-.31a1.5 1.5 0 0 0 .2-.75l-.05-.4a1.39 1.39 0 0 0 -.39-.66l-.85-1a1.14 1.14 0 0 0 -.48-.31 1.08 1.08 0 0 0 -.58-.13 1.06 1.06 0 0 0 -.58.13 1 1 0 0 0 -.48.31l-.24.3a1.54 1.54 0 0 0 -.2.76v.4a1.49 1.49 0 0 0 .39.66z"/></svg>