<svg viewBox="0 0 50 50" xmlns="http://www.w3.org/2000/svg"><rect height="13" rx="1.5" width="13" x="2.5" y="2.5"/><path d="m14 3a1 1 0 0 1 1 1v10a1 1 0 0 1 -1 1h-10a1 1 0 0 1 -1-1v-10a1 1 0 0 1 1-1zm0-1h-10a2 2 0 0 0 -2 2v10a2 2 0 0 0 2 2h10a2 2 0 0 0 2-2v-10a2 2 0 0 0 -2-2z"/><rect height="13" rx="1.5" width="13" x="18.5" y="2.5"/><path d="m30 3a1 1 0 0 1 1 1v10a1 1 0 0 1 -1 1h-10a1 1 0 0 1 -1-1v-10a1 1 0 0 1 1-1zm0-1h-10a2 2 0 0 0 -2 2v10a2 2 0 0 0 2 2h10a2 2 0 0 0 2-2v-10a2 2 0 0 0 -2-2z"/><rect height="13" rx="1.5" width="13" x="34.5" y="2.5"/><path d="m46 3a1 1 0 0 1 1 1v10a1 1 0 0 1 -1 1h-10a1 1 0 0 1 -1-1v-10a1 1 0 0 1 1-1zm0-1h-10a2 2 0 0 0 -2 2v10a2 2 0 0 0 2 2h10a2 2 0 0 0 2-2v-10a2 2 0 0 0 -2-2z"/><rect height="13" rx="1.5" width="13" x="2.5" y="18.5"/><path d="m14 19a1 1 0 0 1 1 1v10a1 1 0 0 1 -1 1h-10a1 1 0 0 1 -1-1v-10a1 1 0 0 1 1-1zm0-1h-10a2 2 0 0 0 -2 2v10a2 2 0 0 0 2 2h10a2 2 0 0 0 2-2v-10a2 2 0 0 0 -2-2z"/><rect height="13" rx="1.5" width="13" x="18.5" y="18.5"/><path d="m30 19a1 1 0 0 1 1 1v10a1 1 0 0 1 -1 1h-10a1 1 0 0 1 -1-1v-10a1 1 0 0 1 1-1zm0-1h-10a2 2 0 0 0 -2 2v10a2 2 0 0 0 2 2h10a2 2 0 0 0 2-2v-10a2 2 0 0 0 -2-2z"/><rect height="13" rx="1.5" width="13" x="34.5" y="18.5"/><path d="m46 19a1 1 0 0 1 1 1v10a1 1 0 0 1 -1 1h-10a1 1 0 0 1 -1-1v-10a1 1 0 0 1 1-1zm0-1h-10a2 2 0 0 0 -2 2v10a2 2 0 0 0 2 2h10a2 2 0 0 0 2-2v-10a2 2 0 0 0 -2-2z"/><rect height="13" rx="1.5" width="13" x="2.5" y="34.5"/><path d="m14 35a1 1 0 0 1 1 1v10a1 1 0 0 1 -1 1h-10a1 1 0 0 1 -1-1v-10a1 1 0 0 1 1-1zm0-1h-10a2 2 0 0 0 -2 2v10a2 2 0 0 0 2 2h10a2 2 0 0 0 2-2v-10a2 2 0 0 0 -2-2z"/><rect height="13" rx="1.5" width="13" x="18.5" y="34.5"/><path d="m30 35a1 1 0 0 1 1 1v10a1 1 0 0 1 -1 1h-10a1 1 0 0 1 -1-1v-10a1 1 0 0 1 1-1zm0-1h-10a2 2 0 0 0 -2 2v10a2 2 0 0 0 2 2h10a2 2 0 0 0 2-2v-10a2 2 0 0 0 -2-2z"/><rect height="13" rx="1.5" width="13" x="34.5" y="34.5"/><path d="m46 35a1 1 0 0 1 1 1v10a1 1 0 0 1 -1 1h-10a1 1 0 0 1 -1-1v-10a1 1 0 0 1 1-1zm0-1h-10a2 2 0 0 0 -2 2v10a2 2 0 0 0 2 2h10a2 2 0 0 0 2-2v-10a2 2 0 0 0 -2-2z"/></svg>