<svg viewBox="0 0 50 50" xmlns="http://www.w3.org/2000/svg"><rect height="21" rx="4.55" width="21" x="2.5" y="2.5"/><path d="m19 3a4.06 4.06 0 0 1 4 4.05v11.95a4.06 4.06 0 0 1 -4 4h-11.95a4.06 4.06 0 0 1 -4.05-4v-11.95a4.06 4.06 0 0 1 4.05-4.05zm0-1h-11.95a5 5 0 0 0 -5.05 5.05v11.95a5 5 0 0 0 5.05 5h11.95a5 5 0 0 0 5-5v-11.95a5 5 0 0 0 -5-5.05z"/><rect height="21" rx="4.55" width="21" x="26.5" y="2.5"/><path d="m43 3a4.06 4.06 0 0 1 4 4.05v11.95a4.06 4.06 0 0 1 -4 4h-11.95a4.06 4.06 0 0 1 -4.05-4v-11.95a4.06 4.06 0 0 1 4.05-4h11.95m0-1h-11.95a5 5 0 0 0 -5.05 5v11.95a5 5 0 0 0 5.05 5h11.95a5 5 0 0 0 5-5v-11.95a5 5 0 0 0 -5-5z"/><rect height="21" rx="4.55" width="21" x="2.5" y="26.5"/><path d="m19 27a4.06 4.06 0 0 1 4 4.05v11.95a4.06 4.06 0 0 1 -4 4h-11.95a4.06 4.06 0 0 1 -4-4v-11.95a4.06 4.06 0 0 1 4-4.05zm0-1h-11.95a5 5 0 0 0 -5 5.05v11.95a5 5 0 0 0 5.05 5h11.9a5 5 0 0 0 5-5v-11.95a5 5 0 0 0 -5-5.05z"/><rect height="21" rx="4.55" width="21" x="26.5" y="26.5"/><path d="m43 27a4.06 4.06 0 0 1 4 4.05v11.95a4.06 4.06 0 0 1 -4 4h-11.95a4.06 4.06 0 0 1 -4.05-4v-11.95a4.06 4.06 0 0 1 4.05-4.05zm0-1h-11.95a5 5 0 0 0 -5.05 5.05v11.95a5 5 0 0 0 5.05 5h11.95a5 5 0 0 0 5-5v-11.95a5 5 0 0 0 -5-5.05z"/></svg>